<svg version="1.0"
    xmlns="http://www.w3.org/2000/svg" viewBox="0 0 340 250" color-interpolation-filters="sRGB" style="margin:auto">
    <rect width="100%" height="100%" fill="none" class="background"/>
    <rect width="100%" height="100%" fill="url(#watermark)" class="watermarklayer"/>
    <g fill="#F5432B" class="iconblsvg-g iconsvg">
        <g class="tp-name">
            <path d="M76.22 128.022H65.93v-.88l.84-.3q1.34-.42 1.34-2.1.04-2.39.04-4.89v-11.44q0-2.44-.04-4.88 0-1.72-1.3-2.14l-.88-.25v-.88h11.04q4.41 0 7.6 1.64 3.2 1.63 4.92 4.72 1.72 3.09 1.72 7.46 0 4.45-1.87 7.56-1.87 3.1-5.25 4.74-3.38 1.64-7.87 1.64Zm-2.02-1.22h2.14q2.98 0 4.85-1.17 1.87-1.18 2.75-3.97.89-2.8.89-7.54 0-4.75-.89-7.52-.88-2.77-2.7-3.95-1.83-1.17-4.73-1.17H74.2q-.04 2.89-.04 5.85V120.862q0 3 .04 5.94Zm23.65-21.88q-1.39 0-2.36-.88-.96-.88-.96-2.23 0-1.38.96-2.25.97-.86 2.36-.86 1.38 0 2.35.86.96.87.96 2.25 0 1.35-.96 2.23-.97.88-2.35.88Zm4.78 23.1h-9.61v-.8l.63-.17q.84-.25 1.13-.75.29-.51.34-1.35v-10.14q0-1.11-.05-2.29 0-.84-.31-1.32-.32-.48-1.16-.65l-.58-.13v-.75l7.35-2.44.5.46-.13 5.97v11.34q0 .84.32 1.34.31.5 1.11.76l.46.12v.8Zm12.14.59q-2.85 0-5.16-1.24t-3.64-3.61q-1.32-2.38-1.32-5.78 0-3.4 1.47-5.79 1.47-2.4 3.93-3.68 2.45-1.28 5.39-1.28 2.4 0 4.08.8 1.68.8 2.56 2.03.88 1.24.88 2.63 0 1.18-.69 1.81-.69.63-1.79.63-1.17 0-1.91-.84-.73-.84-.86-2.15-.04-.84.02-1.42.07-.59-.02-1.14-.17-.71-.56-.96-.4-.26-1.12-.26-2.64 0-4.05 2.12-1.41 2.13-1.41 6.87 0 4.08 1.56 6.26 1.55 2.18 4.83 2.18 1.93 0 3.19-.73 1.26-.74 2.31-2.12l.67.5q-1.05 2.52-3.21 3.84-2.17 1.33-5.15 1.33Zm18.23 0q-2.6 0-4.09-1.28-1.5-1.28-1.5-4.18 0-1.01.03-1.91.02-.91.02-2.12v-9.96h-2.99v-.92l1.14-.17q1.22-.21 2.08-.76.86-.54 1.57-1.51l2.73-3.78h1.26l-.12 5.84h4.78v1.3h-4.83v14.32q0 1.52.66 2.27.65.76 1.61.76.84 0 1.51-.4.68-.4 1.35-1.07l.54.63q-.79 1.38-2.22 2.16-1.43.78-3.53.78Zm12.01-23.69q-1.38 0-2.35-.88-.97-.88-.97-2.23 0-1.38.97-2.25.97-.86 2.35-.86 1.39 0 2.35.86.97.87.97 2.25 0 1.35-.97 2.23-.96.88-2.35.88Zm4.79 23.1h-9.62v-.8l.63-.17q.84-.25 1.14-.75.29-.51.33-1.35v-10.14q0-1.11-.04-2.29 0-.84-.31-1.32-.32-.48-1.16-.65l-.59-.13v-.75l7.35-2.44.51.46-.13 5.97v11.34q0 .84.32 1.34.31.5 1.11.76l.46.12v.8Z" data-gra="path-name"/>
            <g transform="translate(152.8 103.625)" class="imagesvg">
                <path class="image-rect" fill="none" d="M0 0h33.181v29.597H0z"/>
                <svg width="33.181" height="29.597" class="image-svg-svg primary" style="overflow:visible">
                    <svg xmlns="http://www.w3.org/2000/svg" viewBox="0.007 -0.001 112.113 100.002">
                        <g fill-rule="evenodd">
                            <path d="M27 97.93A56.08 56.08 0 0 1 9.29 19.08 55.77 55.77 0 0 0 23.59 50l.07.07c.53.58 1.06 1.14 1.62 1.7s1.12 1.09 1.72 1.62L45.54 72a14.93 14.93 0 0 1 4.53 10.93v1.59a15.12 15.12 0 0 1-8 13.52A15.09 15.09 0 0 1 27 97.93z" fill="#000"/>
                            <path d="M23.59 50a55.77 55.77 0 0 1-14.3-30.92A56.46 56.46 0 0 1 27 2.08 15.08 15.08 0 0 1 42.11 2a15.12 15.12 0 0 1 8 13.52v1.59A15 15 0 0 1 45.55 28l-22 22z" fill="red" opacity=".8"/>
                            <path d="M85.16 2.08a56.08 56.08 0 0 1 17.67 78.84A55.77 55.77 0 0 0 88.53 50l-.08-.07c-.52-.58-1.06-1.14-1.62-1.7s-1.12-1.09-1.69-1.62L66.58 28a14.93 14.93 0 0 1-4.53-10.93v-1.55A15.12 15.12 0 0 1 70 2a15.08 15.08 0 0 1 15.15.08z" fill="#000"/>
                            <path d="M88.53 50a55.77 55.77 0 0 1 14.3 30.92 56.35 56.35 0 0 1-17.67 17 15.46 15.46 0 0 1-23.11-13.44v-1.59A15 15 0 0 1 66.57 72l22-22z" opacity=".8"/>
                        </g>
                    </svg>
                </svg>
            </g>
            <path d="M198.6 128.022h-9.62v-.8l.67-.17q1.39-.42 1.39-2.05v-12.39q-.04-.89-.29-1.37-.26-.48-1.1-.65l-.67-.17v-.75l6.81-2.44.5.46.29 2.61q1.52-1.35 3.39-2.21 1.86-.86 3.67-.86 2.77 0 4.26 1.51 1.49 1.51 1.49 4.62v11.68q0 1.64 1.52 2.06l.46.12v.8h-9.66v-.8l.63-.17q1.38-.46 1.38-2.05v-12.48q0-1.47-.63-2.14-.63-.67-2.1-.67-2.05 0-4.28 1.8v13.53q0 1.64 1.47 2.06l.42.12v.8Zm20.58.59q-2.39 0-4.05-1.37-1.66-1.36-1.66-3.92 0-2.02 1.95-3.72 1.95-1.7 6.15-2.5.72-.17 1.66-.32.95-.14 1.87-.31v-2.98q0-2.86-.71-3.95-.72-1.09-2.27-1.09h-.13q-.96 0-1.53.61-.57.61-.73 1.99l-.13.55q-.13 1.68-.88 2.45-.76.78-1.89.78-1.05 0-1.75-.65-.69-.65-.69-1.7 0-1.72 1.18-2.9 1.17-1.17 3.13-1.76 1.95-.59 4.22-.59 3.74 0 5.71 1.81 1.97 1.8 1.97 5.88v9.36q0 1.81 1.73 1.81h.96l.42.46q-.75.97-1.68 1.49-.92.53-2.52.53-1.8 0-2.87-.87-1.08-.86-1.41-2.28-1.35 1.42-2.65 2.31-1.3.88-3.4.88Zm2.44-2.69q.84 0 1.59-.38.76-.38 1.89-1.26v-6.72q-1.09.17-2.22.42-1.81.42-2.92 1.56-1.12 1.13-1.12 3.06 0 1.68.78 2.5.78.82 2 .82Zm23.56 2.1h-10.5v-.8l.63-.21q.84-.21 1.15-.71.32-.51.32-1.35v-12.3q-.04-.93-.34-1.41-.29-.48-1.13-.65l-.63-.17v-.75l6.84-2.44.51.46.38 3.7v.29q.63-1.17 1.59-2.18.97-1.01 2.1-1.64 1.14-.63 2.27-.63 1.6 0 2.39.84.8.84.8 2.14 0 1.43-.8 2.16-.79.74-1.93.74-1.68 0-2.9-1.51l-.08-.09q-.42-.5-.95-.56-.52-.07-1.02.52-.42.42-.78.99-.36.57-.65 1.32v11.01q0 .79.33 1.32.34.52 1.14.73l1.26.38v.8Zm11.46 10.12q-1.68 0-2.64-.8-.97-.79-.97-2.1 0-1.17.82-1.86.82-.7 1.83-.7 1.05 0 1.72.38.67.38 1.18 1.09l.25.34q.96 1.17 1.8-.04.55-.72 1.07-1.77.53-1.05 1.16-2.77l-7.98-19.07q-.29-.8-.67-1.24-.38-.44-1.14-.73l-.71-.25v-.76h10.37v.76l-.88.25q-.92.29-.98.9-.07.61.27 1.58l4.28 11.17 4.12-11.26q.33-.92.25-1.55-.08-.63-1.05-.84l-.92-.25v-.76h6.25v.76l-.92.29q-.92.25-1.32.73-.4.49-.74 1.41l-6.72 18.06q-1.68 4.62-3.42 6.83-1.74 2.2-4.31 2.2Z" data-gra="path-name-1" fill="#000"/>
        </g>
        <path d="M141.419 151.158v-7.03h-2.37v-.84h5.76v.84h-2.38v7.03h-1.01Zm7.8-7.07v2.93h1.32q.92 0 1.41-.38.5-.38.5-1.14 0-.78-.5-1.1-.49-.31-1.41-.31h-1.32Zm4.45 7.07h-1.13l-1.89-3.32h-1.43v3.32h-1v-7.87h2.46q.6 0 1.11.11.51.12.88.38.36.26.57.68.2.42.2 1.04 0 .92-.48 1.47-.48.55-1.28.76l1.99 3.43Zm4.39-3.2h2.36l-.37-1.2q-.22-.66-.41-1.32-.19-.65-.38-1.34h-.05q-.18.69-.37 1.34-.19.66-.41 1.32l-.37 1.2Zm3.36 3.2-.75-2.4h-2.86l-.76 2.4h-1.02l2.66-7.87h1.13l2.67 7.87h-1.07Zm4.18 0v-7.87h1v7.87h-1Zm5.16 0v-7.87h1.03l2.84 4.94.86 1.63h.04q-.03-.6-.07-1.24-.05-.64-.05-1.26v-4.07h.95v7.87h-1.03l-2.86-4.96-.85-1.62h-.05q.05.6.09 1.22.05.62.05 1.24v4.12h-.95Zm9.76 0v-7.87h1v7.87h-1Zm5.16 0v-7.87h1.03l2.84 4.94.86 1.63h.04q-.03-.6-.07-1.24-.05-.64-.05-1.26v-4.07h.95v7.87h-1.03l-2.86-4.96-.85-1.62h-.05q.05.6.09 1.22.05.62.05 1.24v4.12h-.95Zm9.31-3.94q0-.94.27-1.7t.75-1.28q.49-.53 1.15-.81.66-.29 1.45-.29.82 0 1.36.31.55.31.9.67l-.57.63q-.3-.31-.69-.52-.39-.21-.99-.21t-1.08.22q-.48.22-.81.64-.34.41-.53 1-.18.59-.18 1.32 0 .74.17 1.34.18.59.51 1.01.33.42.81.65.49.23 1.12.23.42 0 .8-.13.38-.12.62-.34v-2.05h-1.67v-.83h2.58v3.31q-.38.4-1.01.66-.63.25-1.42.25-.78 0-1.43-.27-.65-.28-1.12-.8-.47-.52-.73-1.28-.26-.77-.26-1.73Z" data-gra="path-slogan" class="tp-slogan iconsvg-slogansvg" fill="#000"/>
    </g>
</svg>
