<svg width="200" height="56" viewBox="0 0 200 56" fill="none" xmlns="http://www.w3.org/2000/svg">
<rect x="45" y="16" width="24" height="24" rx="12" fill="#FC3F1D"></rect>
<path d="M58.6912 35.212H61.1982V20.812H57.5516C53.8843 20.812 51.9574 22.6975 51.9574 25.4739C51.9574 27.6909 53.0141 28.9962 54.8995 30.3429L51.6259 35.212H54.3401L57.9867 29.7628L56.7228 28.9133C55.1896 27.8773 54.4437 27.0693 54.4437 25.3288C54.4437 23.7956 55.5211 22.7596 57.5723 22.7596H58.6912V35.212Z" fill="white"></path>
<path d="M82.2067 25.128C82.2067 24.52 82.3133 23.992 82.5267 23.544C82.74 23.0853 83.0387 22.712 83.4227 22.424C83.8067 22.1253 84.2653 21.9013 84.7987 21.752C85.3427 21.6027 85.9453 21.528 86.6067 21.528H90.3347V33H88.3827V28.584H86.6067L83.6787 33H81.4227L84.6547 28.296C83.8227 28.0933 83.204 27.7253 82.7987 27.192C82.404 26.648 82.2067 25.96 82.2067 25.128ZM88.3827 26.968V23.208H86.5907C85.8653 23.208 85.284 23.352 84.8467 23.64C84.42 23.9173 84.2067 24.3973 84.2067 25.08C84.2067 25.752 84.3987 26.2373 84.7827 26.536C85.1667 26.824 85.7107 26.968 86.4147 26.968H88.3827Z" fill="black"></path>
<path d="M97.9547 29.496H94.4507V33H92.5947V24.696H94.4507V27.992H97.9547V24.696H99.8107V33H97.9547V29.496Z" fill="black"></path>
<path d="M101.668 31.496C101.913 31.2827 102.105 30.9893 102.244 30.616C102.393 30.2427 102.51 29.7787 102.596 29.224C102.681 28.6587 102.745 28.0027 102.788 27.256C102.83 26.5093 102.868 25.656 102.9 24.696H108.98V31.496H110.228V35.368H108.612L108.468 33H102.74L102.596 35.368H100.964V31.496H101.668ZM107.124 31.496V26.2H104.5C104.446 27.512 104.356 28.6 104.228 29.464C104.11 30.3173 103.913 30.9947 103.636 31.496H107.124Z" fill="black"></path>
<path d="M118.382 32.392C118.265 32.4667 118.121 32.552 117.95 32.648C117.78 32.7333 117.577 32.8133 117.342 32.888C117.108 32.9627 116.836 33.0267 116.526 33.08C116.217 33.1333 115.865 33.16 115.47 33.16C113.945 33.16 112.804 32.7813 112.046 32.024C111.3 31.2667 110.926 30.2053 110.926 28.84C110.926 28.168 111.028 27.5653 111.23 27.032C111.433 26.4987 111.716 26.0507 112.078 25.688C112.441 25.3147 112.873 25.032 113.374 24.84C113.876 24.6373 114.425 24.536 115.022 24.536C115.641 24.536 116.196 24.6373 116.686 24.84C117.188 25.0427 117.598 25.3467 117.918 25.752C118.238 26.1573 118.457 26.6587 118.574 27.256C118.702 27.8533 118.708 28.552 118.59 29.352H112.846C112.921 30.1093 113.172 30.68 113.598 31.064C114.025 31.4373 114.692 31.624 115.598 31.624C116.26 31.624 116.809 31.544 117.246 31.384C117.694 31.2133 118.073 31.0373 118.382 30.856V32.392ZM115.022 26.008C114.478 26.008 114.02 26.1733 113.646 26.504C113.273 26.8347 113.028 27.3253 112.91 27.976H116.814C116.836 27.304 116.686 26.808 116.366 26.488C116.046 26.168 115.598 26.008 115.022 26.008Z" fill="black"></path>
<path d="M122.889 29.624H122.169V33H120.313V24.696H122.169V28.12H122.953L125.593 24.696H127.545L124.409 28.696L127.673 33H125.481L122.889 29.624Z" fill="black"></path>
<path d="M132.341 33.16C131.669 33.16 131.066 33.064 130.533 32.872C129.999 32.6693 129.546 32.3867 129.173 32.024C128.799 31.6507 128.511 31.1973 128.309 30.664C128.106 30.1307 128.005 29.5227 128.005 28.84C128.005 28.168 128.106 27.5653 128.309 27.032C128.511 26.4987 128.799 26.0507 129.173 25.688C129.546 25.3147 130.005 25.032 130.549 24.84C131.093 24.6373 131.701 24.536 132.373 24.536C132.949 24.536 133.45 24.6 133.877 24.728C134.314 24.856 134.661 25.016 134.917 25.208V26.744C134.586 26.5307 134.223 26.3653 133.829 26.248C133.445 26.1307 132.997 26.072 132.485 26.072C130.767 26.072 129.909 26.9947 129.909 28.84C129.909 30.6853 130.751 31.608 132.437 31.608C132.981 31.608 133.445 31.5493 133.829 31.432C134.223 31.304 134.586 31.144 134.917 30.952V32.488C134.639 32.6693 134.293 32.8293 133.877 32.968C133.461 33.096 132.949 33.16 132.341 33.16Z" fill="black"></path>
<path d="M142.27 21.528V33H140.334V21.528H142.27Z" fill="black"></path>
<path d="M144.724 21.528H148.596C149.407 21.528 150.159 21.6187 150.852 21.8C151.556 21.9813 152.164 22.28 152.676 22.696C153.199 23.112 153.604 23.6613 153.892 24.344C154.191 25.0267 154.34 25.8693 154.34 26.872C154.34 27.8853 154.191 28.776 153.892 29.544C153.604 30.3013 153.194 30.936 152.66 31.448C152.138 31.96 151.513 32.3493 150.788 32.616C150.073 32.872 149.29 33 148.436 33H144.724V21.528ZM146.66 23.208V31.336H148.5C149.065 31.336 149.577 31.2507 150.036 31.08C150.505 30.9093 150.906 30.648 151.236 30.296C151.578 29.944 151.839 29.496 152.02 28.952C152.212 28.3973 152.308 27.7413 152.308 26.984C152.308 26.2373 152.217 25.624 152.036 25.144C151.855 24.6533 151.599 24.264 151.268 23.976C150.948 23.688 150.564 23.4907 150.116 23.384C149.668 23.2667 149.183 23.208 148.66 23.208H146.66Z" fill="black"></path>
</svg>